<svg xmlns="http://www.w3.org/2000/svg" version="1.1" xmlns:xlink="http://www.w3.org/1999/xlink" xmlns:svgjs="http://svgjs.dev/svgjs" width="128" height="128" viewBox="0 0 128 128"><g transform="matrix(0.8046875,0,0,0.8046875,12.47305736016223,19.25898419213791)"><svg viewBox="0 0 99 87" data-background-color="#ffffff" preserveAspectRatio="xMidYMid meet" height="112" width="128" xmlns="http://www.w3.org/2000/svg" xmlns:xlink="http://www.w3.org/1999/xlink"><g id="tight-bounds" transform="matrix(1,0,0,1,0.025896323727565118,0.20948386570192667)"><svg viewBox="0 0 95.481 87.02223051905816" height="87.02223051905816" width="95.481"><g><svg viewBox="0 0 95.481 87.02223051905816" height="87.02223051905816" width="95.481"><g><svg viewBox="0 0 95.481 87.02223051905816" height="87.02223051905816" width="95.481"><g id="textblocktransform"><svg viewBox="0 0 95.481 87.02223051905816" height="87.02223051905816" width="95.481" id="textblock"><g><svg viewBox="0 0 95.481 87.02223051905816" height="87.02223051905816" width="95.481"><g><svg viewBox="0 0 95.481 87.02223051905816" height="87.02223051905816" width="95.481"><g><svg xmlns="http://www.w3.org/2000/svg" xmlns:xlink="http://www.w3.org/1999/xlink" version="1.1" x="0" y="0" viewBox="3.173000000000002 7.979 53.809 49.042" enable-background="new 7.5 7.5 50 50" xml:space="preserve" id="icon-0" width="95.481" height="87.02223051905816" class="icon-icon-0" data-fill-palette-color="accent"><circle cx="44.813" cy="46.596" r="1.2" fill="#d84315" data-fill-palette-color="accent"></circle><circle cx="53.258" cy="29.034" r="1.1" fill="#d84315" data-fill-palette-color="accent"></circle><circle cx="36.542" cy="36.079" r="1.2" fill="#d84315" data-fill-palette-color="accent"></circle><path d="M51.323 20.075A0.49 0.49 0 0 1 50.71 20.267 13 13 0 0 1 50.363 20.101C49.13 19.496 45.38 17.658 43.049 18.921 41.968 19.507 41.308 20.736 41.085 22.573 41.082 22.599 41.069 22.621 41.063 22.646 41.055 22.674 41.049 22.701 41.038 22.727A0.5 0.5 0 0 1 40.977 22.816C40.961 22.836 40.949 22.858 40.93 22.875A0.5 0.5 0 0 1 40.83 22.942C40.811 22.953 40.796 22.967 40.775 22.975A0.5 0.5 0 0 1 40.589 23.013H35.896A2.25 2.25 0 0 1 33.708 24.761C32.468 24.761 31.46 23.753 31.46 22.513S32.468 20.264 33.708 20.264C34.775 20.264 35.668 21.014 35.896 22.013H40.163C40.481 20.079 41.286 18.739 42.571 18.042 45.043 16.699 48.549 18.133 50.247 18.935 50.238 12.893 45.318 7.979 39.272 7.979 36.818 7.979 34.429 8.811 32.501 10.33A10.97 10.97 0 0 0 25.727 7.979C19.677 7.979 14.755 12.901 14.755 18.951 14.755 18.992 14.758 19.03 14.759 19.071 16.457 18.274 19.963 16.847 22.427 18.189 23.807 18.94 24.639 20.424 24.902 22.599 24.903 22.61 24.899 22.619 24.9 22.63 24.9 22.64 24.906 22.649 24.906 22.659V26.646H28.563A2.25 2.25 0 0 1 30.751 24.897C31.991 24.897 33 25.906 33 27.146S31.991 29.395 30.751 29.395A2.25 2.25 0 0 1 28.563 27.646H24.406A0.5 0.5 0 0 1 23.906 27.146V22.697C23.682 20.874 23.025 19.653 21.95 19.067 19.629 17.805 15.878 19.633 14.644 20.235 14.484 20.313 14.361 20.373 14.283 20.407A0.5 0.5 0 0 1 13.625 20.147C13.62 20.136 13.622 20.124 13.618 20.112A11.53 11.53 0 0 0 8.018 30.011C8.018 34.682 10.839 38.864 15.108 40.653 16.295 38.942 18.38 37.263 21.424 36.33 21.353 32.621 19.792 29.535 17.946 29.535H13.742A2.07 2.07 0 0 1 11.742 31.104C10.601 31.104 9.673 30.176 9.673 29.035S10.601 26.966 11.742 26.966C12.709 26.966 13.517 27.636 13.742 28.535H17.946C20.361 28.535 22.268 31.802 22.416 36.062A18.5 18.5 0 0 1 26.26 35.592 2.25 2.25 0 0 1 28.452 33.83C29.692 33.83 30.701 34.839 30.701 36.078S29.692 38.326 28.452 38.326A2.25 2.25 0 0 1 26.268 36.591C19.973 36.728 16.416 39.753 15.281 42.359A0.49 0.49 0 0 1 14.899 42.637 12 12 0 0 0 14.754 44.51C14.754 51.408 20.365 57.021 27.263 57.021 28.832 57.021 30.359 56.711 31.822 56.133 30.983 51.152 27.093 47.342 22.363 47.12A2.25 2.25 0 0 1 20.182 48.844 2.25 2.25 0 0 1 17.934 46.596 2.25 2.25 0 0 1 20.182 44.347C21.259 44.347 22.159 45.109 22.378 46.12 27.138 46.329 31.137 49.811 32.498 54.561 33.859 49.81 37.858 46.329 42.618 46.12A2.25 2.25 0 0 1 44.813 44.347 2.25 2.25 0 0 1 47.061 46.596 2.25 2.25 0 0 1 44.813 48.844 2.25 2.25 0 0 1 42.633 47.12C37.903 47.342 34.013 51.15 33.173 56.132 34.635 56.71 36.161 57.021 37.733 57.021 44.633 57.021 50.248 51.409 50.248 44.51 50.248 43.886 50.199 43.261 50.102 42.638A0.49 0.49 0 0 1 49.717 42.36C48.577 39.754 45.018 36.728 38.726 36.591A2.25 2.25 0 0 1 36.541 38.327C35.302 38.327 34.293 37.318 34.293 36.079S35.302 33.831 36.541 33.831A2.25 2.25 0 0 1 38.733 35.592C40.139 35.621 41.421 35.788 42.579 36.062 42.727 31.802 44.636 28.535 47.053 28.535H51.257A2.07 2.07 0 0 1 53.257 26.966C54.398 26.966 55.326 27.894 55.326 29.035S54.397 31.104 53.257 31.104C52.289 31.104 51.482 30.434 51.257 29.535H47.053C45.206 29.535 43.643 32.621 43.572 36.331 46.616 37.265 48.703 38.944 49.89 40.655A11.55 11.55 0 0 0 56.982 30.011C56.982 25.883 54.803 22.139 51.323 20.075" fill="#d84315" data-fill-palette-color="accent"></path><path d="M20.182 45.347A1.25 1.25 0 0 0 20.182 47.844 1.25 1.25 0 0 0 21.43 46.598V46.594A1.25 1.25 0 0 0 20.182 45.347" fill="#d84315" data-fill-palette-color="accent"></path><circle cx="33.708" cy="22.514" r="1.2" fill="#d84315" data-fill-palette-color="accent"></circle><circle cx="11.742" cy="29.034" r="1.1" fill="#d84315" data-fill-palette-color="accent"></circle><circle cx="30.75" cy="27.146" r="1.2" fill="#d84315" data-fill-palette-color="accent"></circle><path d="M28.452 37.326C29.14 37.326 29.701 36.766 29.701 36.078S29.141 34.83 28.452 34.83A1.25 1.25 0 0 0 27.204 36.074L27.205 36.078 27.204 36.082A1.25 1.25 0 0 0 28.452 37.326" fill="#d84315" data-fill-palette-color="accent"></path></svg></g></svg></g></svg></g></svg></g></svg></g></svg></g><defs></defs></svg><rect width="95.481" height="87.02223051905816" fill="none" stroke="none" visibility="hidden"></rect></g></svg></g></svg>